<?xml version="1.0" encoding="UTF-8"?><svg id="Capa_2" xmlns="http://www.w3.org/2000/svg" viewBox="0 0 312.51 54.92"><defs><style>.cls-1{fill:#1c4584;}</style></defs><g id="Capa_2-2"><path class="cls-1" d="M312.51,17.34c-12.99,10.56-30.29,9.93-30.39,9.93l-.36-.03h-.56c-.18,.02-17.22,.14-35.75-8.87-3.42-1.66-6.51-3.27-9.5-4.83C222.92,6.76,211.65,.9,190.54,.06c-12.58-.5-35.98,1.68-105.9,23.13C52.53,33.03,21.98,30.31,0,25.4v25.66c11.45,2.25,24.61,3.85,38.9,3.85,16.48,0,34.48-2.13,53.07-7.83,50.35-15.44,82.25-22.65,97.58-22.05,15.52,.62,22.8,4.41,34.86,10.68,2.99,1.56,6.38,3.32,10.11,5.13,22.58,10.98,43.31,11.4,46.72,11.4,2.86,.09,16.54,.14,31.27-6.1V17.34Z"/></g></svg>